<?xml version="1.0" encoding="UTF-8"?>
<svg id="Layer_1" xmlns="http://www.w3.org/2000/svg" version="1.1" viewBox="0 0 50 50">
  <!-- Generator: Adobe Illustrator 30.0.0, SVG Export Plug-In . SVG Version: 2.1.1 Build 123)  -->
  <defs>
    <style>
      .st0 {
        fill: #fff;
      }
    </style>
  </defs>
  <path class="st0" d="M5,8c-1.1-.02-2.01.87-2.03,1.97-.02,1.1.87,2.01,1.97,2.03.02,0,.04,0,.06,0h40c1.1.02,2.01-.87,2.03-1.97s-.87-2.01-1.97-2.03c-.02,0-.04,0-.06,0H5ZM5,23c-1.1-.02-2.01.87-2.03,1.97-.02,1.1.87,2.01,1.97,2.03.02,0,.04,0,.06,0h40c1.1.02,2.01-.87,2.03-1.97.02-1.1-.87-2.01-1.97-2.03-.02,0-.04,0-.06,0H5ZM5,38c-1.1-.02-2.01.87-2.03,1.97-.02,1.1.87,2.01,1.97,2.03.02,0,.04,0,.06,0h40c1.1.02,2.01-.87,2.03-1.97s-.87-2.01-1.97-2.03c-.02,0-.04,0-.06,0H5Z"/>
</svg>